<?xml version="1.0" encoding="UTF-8"?>
<svg id="_Слой_1" data-name="Слой_1" xmlns="http://www.w3.org/2000/svg" version="1.1" viewBox="40 155 520 520">
  <!-- Generator: Adobe Illustrator 29.8.1, SVG Export Plug-In . SVG Version: 2.1.1 Build 2)  -->
  <defs>
    <style>
      .st0, .st1 {
        fill: #67bfba;
      }

      .st2 {
        stroke: #fbfafa;
      }

      .st2, .st3 {
        fill: none;
      }

      .st2, .st3, .st1 {
        stroke-miterlimit: 10;
      }

      .st3 {
        stroke: #f3a1a5;
      }

      .st4 {
        fill: #f3a1a5;
      }

      .st1 {
        stroke: #67bfba;
        stroke-width: 2px;
      }

      .st5 {
        fill: #b4d4eb;
      }
    </style>
  </defs>
  <path class="st4" d="M133.12,608.53h-.3c-.78,0-1.48-.11-2.11-.33-.31-2.2-.47-4.6-.47-7.2,0-1.92.09-3.96.26-6.12.16-2.28.23-4.3.23-6.05l-.12-3.8v-.7c0-2.02.12-3.12.35-3.3-.03-.2-.05-.48-.05-.84,0-.25.01-.65.04-1.2s.07-1.21.14-1.99.14-1.33.22-1.64c.5-.3,1.38-.45,2.63-.45,1.77,0,3.68.2,5.74.61,1.69.33,2.89.73,3.61,1.22,1.03.73,1.64,1.19,1.83,1.36.38.36.86,1.21,1.45,2.55.3.8.45,1.77.45,2.93,0,.05,0,.39-.02,1.03s-.23,1.28-.63,1.92c-.16.91-.59,1.91-1.31,3.02s-1.48,1.89-2.27,2.34c-2.13,1.05-4.4,1.67-6.82,1.88-.13.59-.26,1.63-.4,3.09-.3,3.03-.45,5.41-.45,7.15l.02.75c0,.44,0,.8-.02,1.1v.35c0,.61.1,1.2.3,1.78-.61.3-1.38.47-2.3.52ZM135.84,588.03c4.19-.28,6.32-1.67,6.4-4.17-.05-1.5-.73-2.62-2.06-3.35-.48-.22-1.19-.42-2.11-.61s-1.61-.28-2.06-.28l.02,3.21c0,1.7-.06,3.44-.19,5.2Z"/>
  <path class="st4" d="M159.6,609.24c-3.16,0-5.55-1.2-7.17-3.61-.53-.83-1.09-2.15-1.66-3.96s-1.01-3.6-1.29-5.37c-.11-.75-.16-1.41-.16-1.97,0-.75.1-1.32.3-1.71-.05-.28-.07-.61-.07-.98,0-.83.14-2.05.42-3.68s.74-3.34,1.37-5.13,1.3-2.95,2-3.45c.36-1.08,1.45-2.14,3.26-3.2s3.55-1.67,5.23-1.84l1.29-.09c.47-.05.88-.07,1.22-.07.33.02.69.09,1.08.23.94.34,1.91.84,2.91,1.5,1.36.91,2.13,1.63,2.3,2.18.61.45,1.13,1.21,1.56,2.26s.79,2.05,1.07,3,.49,1.5.63,1.68c.14.8.3,1.59.49,2.37.42,1.63.64,3.3.66,5.02-.03.25-.08.52-.14.81s-.11.53-.14.71c0,.31.03.54.08.67s.1.35.13.64c-.02.61-.13,1.21-.35,1.8-.11.34-.2.68-.28,1.01-.33,1.69-1.01,3.39-2.05,5.11s-2.33,2.97-3.88,3.75c-1.22.89-2.87,1.53-4.95,1.92-1.39.27-2.67.4-3.84.4ZM161.83,603.21c3.81,0,6-1.76,6.56-5.27.06-.52.15-1.09.26-1.73.3-1.83.45-3.13.45-3.89,0-4.58-1.5-8.76-4.5-12.54-.28-.06-.52-.15-.73-.26-.31-.17-.65-.26-1.01-.26-.28,0-.66.08-1.13.23-1.38.48-2.27.88-2.67,1.2-1.06,1.06-1.91,2.7-2.53,4.9s-.94,4.05-.94,5.53l.02,2.63c0,1.41-.05,2.74-.14,4.01.14.11.44.66.89,1.66.52,1.23.95,2.07,1.31,2.51.63.66,1.73,1.07,3.33,1.24.28.03.55.05.82.05Z"/>
  <path class="st4" d="M191.59,609.03l-1.76-.38c-.11-.64-.16-1.71-.16-3.21v-.59c0-1.16-.02-2-.07-2.53-.03-.38-.05-.73-.05-1.05,0-.19-.02-.38-.05-.59-.03-.41-.05-1.55-.05-3.42-.48.69-1.37,2.25-2.65,4.69-.56,1.08-1.09,2.01-1.59,2.79-.31.47-.61.95-.89,1.45-.66,1.25-1.02,2.05-1.1,2.41-.13.27-.22.4-.28.4-.05,0-.13-.02-.26-.05-.45-.17-1.13-.26-2.02-.26-.22,0-.47,0-.75.02s-.55.04-.8.07-.49.05-.73.05c-.19,0-.42-.01-.7-.04s-.7-.19-1.27-.5c.02-.47.13-.88.35-1.23s.47-.7.75-1.04c.36-.41.69-.91.98-1.52s.63-1.08.98-1.41c.52-1.3,1.42-2.88,2.72-4.73.69-1,1.29-1.94,1.82-2.81s.81-1.58.86-2.11c-.31-.55-1.54-3.44-3.68-8.67-2.28-5.53-3.48-8.66-3.59-9.4.67-.05,1.45-.07,2.34-.07,2.17,0,3.37.03,3.59.09.61.98,1.24,2.55,1.9,4.71.28.91.61,1.85.98,2.84.3.78.57,1.55.82,2.32.47,1.34,1.2,3.02,2.2,5.02l-.07-2.77c-.09-2.72-.14-4.35-.14-4.9,0-2.27.16-4.55.47-6.87.78-.33,1.75-.49,2.91-.49.86,0,1.55.14,2.06.42.16.25.3,1.9.45,4.95.05,1.36.07,2.76.07,4.2,0,.78-.02,1.34-.07,1.69l.16,3.8c1.06-2.14,1.81-3.83,2.25-5.06.27-.77.55-1.54.84-2.32.38-.98.7-1.93.98-2.84.69-2.16,1.33-3.73,1.92-4.71.25-.06,1.45-.09,3.61-.09.89,0,1.66.02,2.32.07-.09.75-1.3,3.88-3.61,9.4-2.27,5.34-3.52,8.23-3.75,8.67.05.53.33,1.23.84,2.11s1.11,1.81,1.78,2.81c1.3,1.86,2.2,3.44,2.72,4.73.34.33.66.8.96,1.41s.63,1.12.98,1.52c.28.34.53.69.74,1.04s.33.76.36,1.23c-.67.36-1.34.54-1.99.54-.23,0-.48-.02-.73-.05s-.52-.05-.8-.07-.53-.02-.75-.02c-.47,0-.88.03-1.23.08s-.6.11-.75.15-.25.07-.29.07c-.06,0-.16-.13-.28-.4-.08-.36-.44-1.16-1.08-2.41-.28-.5-.58-.98-.89-1.45-.42-.66-.95-1.59-1.57-2.79-1.03-1.98-1.83-3.43-2.39-4.34-.05.73-.12,1.2-.21,1.38.02.23.04.44.06.62s.04.36.04.53c-.02.17-.08.36-.19.56.17,1.75.26,2.84.26,3.26l-.02.68c-.03.33-.05.72-.05,1.17l.02,1.2c0,.84-.06,1.42-.19,1.73-.58.17-1.12.26-1.62.26l-.94-.05c-.33,0-.69.03-1.08.09Z"/>
  <path class="st4" d="M215.01,608.86h-.14c-.3,0-1.09-.06-2.37-.19-1.39-.13-2.16-.23-2.32-.33-.06-.14-.09-.3-.09-.49,0-.61.37-1.88,1.1-3.82.27-.7.45-1.25.56-1.64.11-.47.28-1.11.52-1.92.61-2.06,1.16-3.37,1.64-3.91.02-.33.13-.85.33-1.57.41-1.39.84-2.63,1.29-3.73.73-1.88,1.88-4.52,3.42-7.92,1.81-4,2.93-6.12,3.35-6.35.34-.97.79-1.66,1.34-2.06.59.47,1.2,1.7,1.8,3.68.23.77.36,1.34.38,1.73.31.38.7,1.27,1.17,2.67.28.91.56,1.6.84,2.09.16.52.41,1.3.77,2.34l2.6,7.92c2.55,7.8,3.82,11.97,3.82,12.52v.02c-.27.28-.53.45-.8.49-.16.03-.33.05-.52.05-.11,0-.24-.01-.39-.04s-.32-.04-.5-.04l-.89.05c-.25.03-.48.05-.7.05-.44,0-.85-.07-1.24-.21-.5-.67-1.23-2.75-2.18-6.23-.42-1.58-.8-2.78-1.13-3.61-.33.02-.65.05-.97.09s-.68.07-1.09.07h-.26c-.3-.02-.69-.02-1.17-.02-1.34,0-2.98.14-4.9.42-.64,1.3-1.46,3.66-2.46,7.1l-.82,2.79ZM219.93,594.56l5.37-.07c.19,0,.28-.03.28-.09l-.05-.14c-.59-2.31-.95-4.08-1.08-5.3-.22-1.69-.55-2.76-1.01-3.21l-.49,1.38c-.56,1.39-.94,2.42-1.13,3.09l-.63,1.36c-.69,1.42-1.11,2.41-1.27,2.98Z"/>
  <path class="st4" d="M249.09,608.53h-.8c-.64,0-1.88-.03-3.7-.09v-.05l-2.25.02-1.62.02c-1.16,0-2.2-.05-3.12-.14-.06-.7-.13-2.2-.21-4.5-.16-4.36-.23-8.21-.23-11.55,0-4.33.13-6.79.4-7.38-.13-.55-.19-1.45-.19-2.7,0-2.19.09-4.4.26-6.63.41-.38,1.99-.56,4.76-.56,1.16,0,2.39.02,3.7.07.56.03,1.16.05,1.78.05.53,0,1.1-.02,1.7-.06s1.19-.06,1.77-.06c1.63,0,3.1.18,4.43.54.17.66.26,1.44.26,2.34,0,.41-.03.78-.09,1.13-.11.56-.36.84-.75.84l-4.83-.02-4.8-.05c-1.52,0-2.53.02-3.05.05l-.02,1.78v1.48l-.02,1.48c-.06,1.28-.09,2.52-.09,3.7,0,.5.02.91.05,1.22.23.14,1.68.21,4.34.21,1.63,0,3.2.03,4.73.09s2.59.23,3.19.52c.25,1.02.38,1.84.38,2.48,0,.7-.16,1.18-.47,1.43-.52.41-1.85.61-4.01.61l-1.15-.02-2.53.02-4.38.19-.19,7.15c1.45.27,4.32.4,8.6.4,3.06,0,4.7.09,4.92.26.25.58.37,1.26.35,2.04,0,.8-.07,1.52-.2,2.16s-.41,1.03-.83,1.17c-.34.11-.73.16-1.17.16h-1.05l-3.84.21Z"/>
  <path class="st4" d="M286.26,609.21c-.36,0-.73-.02-1.1-.07-.31-.03-.59-.05-.82-.05-.81-.02-1.39-.06-1.75-.14s-.57-.25-.66-.53-.14-.71-.15-1.32v-.14c0-.84-.13-2.13-.4-3.84-.3-1.83-.55-3.85-.77-6.07-.22-2.33-.44-3.99-.66-4.99-.59,1.06-1.63,4.7-3.09,10.92-.88,3.67-1.41,5.7-1.59,6.07l-.91.16c-.41-.75-.77-1.66-1.1-2.72l-.45-1.27c-.28-.66-.5-1.33-.67-2.03s-.37-1.37-.62-2.03c-.38-.89-.86-2.64-1.45-5.25-.11-.52-.21-.98-.32-1.41s-.18-.79-.25-1.1c-.09-.28-.16-.45-.19-.52s-.07-.09-.12-.09-.09-.02-.12-.05l-1.57,5.02c-.41,1.2-.79,2.46-1.15,3.77l-.33,1.22c-.48,1.72-.8,3.02-.96,3.89-.17,1.02-.38,1.65-.63,1.9-.2.2-.59.3-1.15.3-.83,0-1.52-.06-2.06-.19-.33-.08-.69-.26-1.08-.54v-.35c0-.66.1-1.79.3-3.41s.45-3.29.74-5.02.55-2.8.79-3.22c-.03-.09-.05-.22-.05-.38,0-.27.05-.66.14-1.2.19-1.19.46-2.27.82-3.26.14-.83.39-1.88.75-3.14.45-1.75.68-2.81.68-3.19.11-.17.32-.84.63-2.02.47-1.64,1.05-3.43,1.75-5.37s1.42-3.16,2.17-3.66c.66.83,1.05,1.79,1.2,2.88.11.56.27,1.13.47,1.71,1.38,4,2.65,8.87,3.82,14.6l.19.84c.36-.41.66-1.14.91-2.2.31-1.27,1.95-4.99,4.9-11.18,1.05-2.2,1.79-3.68,2.24-4.44s.86-1.14,1.25-1.14c.16,0,.32.04.49.12.05.05.13.78.23,2.2.34,4.38.72,6.97,1.13,7.78-.06.34-.09.76-.09,1.24,0,.97.14,2.59.42,4.85.14,1,.23,1.83.28,2.48l.56,9.02c.23.55.35,2.05.35,4.5,0,.94-.05,1.52-.14,1.73-.19.17-.46.26-.82.26Z"/>
  <path class="st0" d="M310.03,609.45c-.88,0-1.8-.07-2.79-.21-.09-.77-.19-2.24-.28-4.43-.11-2.67-.16-5.46-.16-8.37,0-2.03.04-3.81.12-5.34,0-.88-.02-1.73-.05-2.58,0-.14,0-.27-.02-.4v-.35c-.02-.67-.02-1.66-.02-2.98,0-2.08.13-3.23.38-3.45-.02-.2-.02-.49-.02-.87,0-.25.01-.66.04-1.23s.07-1.26.14-2.06.14-1.37.2-1.7c.53-.34,1.45-.52,2.77-.52.06,0,.46,0,1.2.02s1.82.18,3.27.48,2.49.71,3.13,1.21c.92.75,1.48,1.23,1.66,1.43.36.38.8,1.25,1.31,2.63.27.78.4,1.72.4,2.81,0,.13-.01.53-.04,1.22s-.23,1.37-.62,2.04c-.13.89-.42,1.8-.88,2.74s-1.02,1.64-1.68,2.11c.31.14.59.29.82.45l1.17.42c.11.17.31.4.61.68.86.86,1.48,1.84,1.88,2.95.08.33.17.91.28,1.73.14.95.21,1.82.21,2.6,0,.64-.08,1.02-.23,1.15-.02.48-.2,1.13-.56,1.95s-.79,1.55-1.3,2.2-.97.99-1.39,1.01c-.28.39-.76.74-1.43,1.05-1.22.56-2.55.97-4.01,1.22-1.56.25-2.92.38-4.08.38ZM312.94,605.11c1.72,0,2.96-.34,3.73-1.01.33-.28.61-.58.84-.89l.56-.61c.02-.3.05-.6.09-.91.08-.39.12-.84.12-1.36-.02-1.08-.29-2.09-.81-3.05s-1.29-1.63-2.29-2.02c-.98-.34-1.81-.52-2.48-.52-.36,0-.73.03-1.1.09v.12c-.05.41-.07.78-.07,1.13,0,.22.02.49.07.82l-.52,6.52.12,1.52c.59.11,1.17.16,1.73.16ZM311.44,589.69c1.25-.17,2.49-.71,3.71-1.62s1.87-2.2,1.93-3.87c-.05-.73-.25-1.44-.6-2.11s-.83-1.19-1.44-1.55c-.44-.2-1.01-.37-1.72-.5s-1.27-.2-1.68-.2l.02,3.09c0,2.3-.08,4.55-.23,6.75Z"/>
  <path class="st0" d="M352.97,609.21c-.36,0-.73-.02-1.1-.07-.31-.03-.59-.05-.82-.05-.81-.02-1.39-.06-1.75-.14s-.57-.25-.66-.53-.14-.71-.15-1.32v-.14c0-.84-.13-2.13-.4-3.84-.3-1.83-.55-3.85-.77-6.07-.22-2.33-.44-3.99-.66-4.99-.59,1.06-1.63,4.7-3.09,10.92-.88,3.67-1.41,5.7-1.59,6.07l-.91.16c-.41-.75-.77-1.66-1.1-2.72l-.45-1.27c-.28-.66-.5-1.33-.67-2.03s-.37-1.37-.62-2.03c-.38-.89-.86-2.64-1.45-5.25-.11-.52-.21-.98-.32-1.41s-.18-.79-.25-1.1c-.09-.28-.16-.45-.19-.52s-.07-.09-.12-.09-.09-.02-.12-.05l-1.57,5.02c-.41,1.2-.79,2.46-1.15,3.77l-.33,1.22c-.48,1.72-.8,3.02-.96,3.89-.17,1.02-.38,1.65-.63,1.9-.2.2-.59.3-1.15.3-.83,0-1.52-.06-2.06-.19-.33-.08-.69-.26-1.08-.54v-.35c0-.66.1-1.79.3-3.41s.45-3.29.74-5.02.55-2.8.79-3.22c-.03-.09-.05-.22-.05-.38,0-.27.05-.66.14-1.2.19-1.19.46-2.27.82-3.26.14-.83.39-1.88.75-3.14.45-1.75.68-2.81.68-3.19.11-.17.32-.84.63-2.02.47-1.64,1.05-3.43,1.75-5.37s1.42-3.16,2.17-3.66c.66.83,1.05,1.79,1.2,2.88.11.56.27,1.13.47,1.71,1.38,4,2.65,8.87,3.82,14.6l.19.84c.36-.41.66-1.14.91-2.2.31-1.27,1.95-4.99,4.9-11.18,1.05-2.2,1.79-3.68,2.24-4.44s.86-1.14,1.25-1.14c.16,0,.32.04.49.12.05.05.13.78.23,2.2.34,4.38.72,6.97,1.13,7.78-.06.34-.09.76-.09,1.24,0,.97.14,2.59.42,4.85.14,1,.23,1.83.28,2.48l.56,9.02c.23.55.35,2.05.35,4.5,0,.94-.05,1.52-.14,1.73-.19.17-.46.26-.82.26Z"/>
  <path class="st0" d="M369.7,608.53h-.8c-.64,0-1.88-.03-3.7-.09v-.05l-2.25.02-1.62.02c-1.16,0-2.2-.05-3.12-.14-.06-.7-.13-2.2-.21-4.5-.16-4.36-.23-8.21-.23-11.55,0-4.33.13-6.79.4-7.38-.13-.55-.19-1.45-.19-2.7,0-2.19.09-4.4.26-6.63.41-.38,1.99-.56,4.76-.56,1.16,0,2.39.02,3.7.07.56.03,1.16.05,1.78.05.53,0,1.1-.02,1.7-.06s1.19-.06,1.77-.06c1.63,0,3.1.18,4.43.54.17.66.26,1.44.26,2.34,0,.41-.03.78-.09,1.13-.11.56-.36.84-.75.84l-4.83-.02-4.8-.05c-1.52,0-2.53.02-3.05.05l-.02,1.78v1.48l-.02,1.48c-.06,1.28-.09,2.52-.09,3.7,0,.5.02.91.05,1.22.23.14,1.68.21,4.34.21,1.63,0,3.2.03,4.73.09s2.59.23,3.19.52c.25,1.02.38,1.84.38,2.48,0,.7-.16,1.18-.47,1.43-.52.41-1.85.61-4.01.61l-1.15-.02-2.53.02-4.38.19-.19,7.15c1.45.27,4.32.4,8.6.4,3.06,0,4.7.09,4.92.26.25.58.37,1.26.35,2.04,0,.8-.07,1.52-.2,2.16s-.41,1.03-.83,1.17c-.34.11-.73.16-1.17.16h-1.05l-3.84.21Z"/>
  <path class="st0" d="M398.16,608.53c-2.78,0-5.57-.63-8.37-1.88-.91-.39-1.9-1.01-2.98-1.85-2.36-1.83-3.75-3.95-4.17-6.35-.06-.34-.16-.66-.28-.96-.5-1-.8-2.83-.91-5.48-.02-.33-.02-.66-.02-.98,0-3.33.78-6.25,2.34-8.75s4.24-4.5,8.04-5.99c1.52-.63,2.88-.94,4.08-.94l.8.05c.73,0,1.4-.1,1.99-.3.41-.08.8-.12,1.2-.12s.95.02,1.69.06,1.52.1,2.34.19,1.42.19,1.78.32c.16.56.26,1.24.3,2.04,0,.3,0,.84-.02,1.63s-.24,1.46-.68,2c-.09.02-.21.02-.35.02-.34,0-.85-.06-1.52-.19-1.58-.31-3.04-.47-4.38-.47-1.03,0-2.09.14-3.19.42l-.09.05c-1.06.25-2.08.59-3.05,1.03-1.23.55-2.14,1.5-2.72,2.86-.3.75-.54,1.2-.73,1.34v.45c0,.63-.05,1.38-.14,2.27-.08.73-.13,1.38-.14,1.92.08,1.59.38,3.05.89,4.38.17.55.32,1.07.45,1.57.44.36.82.71,1.14,1.05s.65.66,1,.95.8.54,1.36.74c.91.33,2.51.55,4.8.68.36.02.68.04.96.07,1.05.09,1.92.16,2.63.21.91.05,1.57.11,1.99.2s.7.24.82.47.2.6.23,1.11c.03.72.09,1.48.19,2.27.08.69.13,1.35.14,1.99v.3c0,.28-.03.48-.09.61-.28.28-.66.46-1.15.53s-.97.11-1.46.11-.93.02-1.32.07c-1.13.2-2.25.3-3.38.3Z"/>
  <path class="st0" d="M422.79,608.93c-.53,0-1.15-.05-1.85-.15s-1.14-.27-1.31-.5c-.08-.31-.12-1.01-.12-2.09,0-1.86.04-3.75.12-5.67.14-4.44.31-6.95.52-7.52-.08-.38-.12-.9-.12-1.57l.02-2.02.02-1.17c0-.27-.02-.59-.05-.96-.05-.66-.07-1.32-.07-1.99s.06-1.23.19-1.57c-.13-.45-.19-1.02-.19-1.71l.02-.42c0-.16,0-.3-.02-.45-1-.13-2.22-.19-3.66-.19s-2.76.02-4.01.05c-.75.03-1.37.05-1.85.05s-.77-.02-.87-.05c-.14-.81-.23-1.71-.26-2.7,0-1.03.11-1.88.33-2.55,1.58-.27,3.73-.47,6.45-.61l19.52.05c.13.53.19,1.46.19,2.79,0,.61,0,1.01-.02,1.2-.03.3-.13.58-.3.84-.09.13-.2.3-.33.54-.58-.08-1.69-.12-3.33-.12-3.38,0-5.34.05-5.88.16l.12,5.04.14,1.97-.12,10.52c-.03,1.06-.12,2.25-.26,3.56-.16.97-.23,1.98-.23,3.02l.05,1.69c0,.56-.02,1.12-.07,1.66-.33.58-1.25.87-2.77.87Z"/>
  <path class="st0" d="M449.86,608.53h-.8c-.64,0-1.88-.03-3.7-.09v-.05l-2.25.02-1.62.02c-1.16,0-2.2-.05-3.12-.14-.06-.7-.13-2.2-.21-4.5-.16-4.36-.23-8.21-.23-11.55,0-4.33.13-6.79.4-7.38-.13-.55-.19-1.45-.19-2.7,0-2.19.09-4.4.26-6.63.41-.38,1.99-.56,4.76-.56,1.16,0,2.39.02,3.7.07.56.03,1.16.05,1.78.05.53,0,1.1-.02,1.7-.06s1.19-.06,1.77-.06c1.63,0,3.1.18,4.43.54.17.66.26,1.44.26,2.34,0,.41-.03.78-.09,1.13-.11.56-.36.84-.75.84l-4.83-.02-4.8-.05c-1.52,0-2.53.02-3.05.05l-.02,1.78v1.48l-.02,1.48c-.06,1.28-.09,2.52-.09,3.7,0,.5.02.91.05,1.22.23.14,1.68.21,4.34.21,1.63,0,3.2.03,4.73.09s2.59.23,3.19.52c.25,1.02.38,1.84.38,2.48,0,.7-.16,1.18-.47,1.43-.52.41-1.85.61-4.01.61l-1.15-.02-2.53.02-4.38.19-.19,7.15c1.45.27,4.32.4,8.6.4,3.06,0,4.7.09,4.92.26.25.58.37,1.26.35,2.04,0,.8-.07,1.52-.2,2.16s-.41,1.03-.83,1.17c-.34.11-.73.16-1.17.16h-1.05l-3.84.21Z"/>
  <path class="st4" d="M397.67,449.09c-.9-1.22,6.72-8.4,11.57-12.97,8.06-7.59,14.74-12.55,15.32-12.97,34.98-25.74,40.05-28.48,49.7-37.37,10.97-10.1,18.03-19.09,23.49-26.1,10.43-13.4,17.87-22.95,23.15-37.5,4.57-12.6,5.38-23.01,6.81-22.86,1.68.18,1.42,14.69,1.36,18.07-.31,17.61-.47,26.42-3.74,36.06-4.88,14.36-13.72,22.93-25.53,34.38-10.74,10.41-20.41,16.67-28.94,22.13-13.79,8.82-16.38,8.48-39.15,20.93-21.58,11.8-33.01,19.62-34.04,18.22Z"/>
  <path class="st4" d="M447.03,432.75c2.03-2.71,4.7-2.69,11.57-5.11.15-.05,3.62-1.54,10.55-4.5,10.22-4.37,18.84-10.25,24.17-13.88,9.61-6.55,16.56-11.3,23.83-19.4,9.75-10.88,13.03-19.98,14.3-19.4,1.58.71-3.08,14.96-7.83,26.21-3.98,9.43-5.97,14.14-10.21,19.74-6.95,9.18-14.77,13.85-24.01,19.4-8.88,5.33-15.74,7.96-26.04,11.91-2.84,1.09-25.44,9.69-26.88,6.81-.79-1.59,6.05-4.22,8.51-12.26,1.47-4.8-.09-6.69,2.04-9.53Z"/>
  <path class="st0" d="M435.12,464.5"/>
  <path class="st4" d="M436.42,462.71c1.22-1.41,2.79-1.18,8.57-2.04,2.48-.37,4.93-.96,7.41-1.36,7.02-1.13,18.63-4.8,25.61-7.49,22.06-8.51,32.43-20.6,34.72-18.38,2.1,2.03-5.12,13.65-12.6,21.69-3.1,3.34-11.6,11.83-25.42,17.46-8.49,3.46-15.12,4.15-28.36,5.54-11.16,1.17-17.38.71-17.7-.8-.3-1.38,4.6-2.19,6.47-6.78,1.47-3.61-.49-5.76,1.3-7.83Z"/>
  <path class="st4" d="M424.57,493.01c.93-2.82-.94-4.4,0-5.79.95-1.39,3.52-.83,10.55-.34,2.15.15,4.32.17,6.47.34,11.41.88,26.08-3.6,29.28-4.57,11.39-3.47,16.51-6.87,17.35-5.61.96,1.43-4.77,7.19-9.53,10.87-2.8,2.17-10.67,8.1-22.6,10.21-5.55.98-3.08-.44-20.97,0-5.09.12-12.53.42-12.94-1.36-.2-.9,1.61-1.4,2.38-3.74Z"/>
  <path class="st4" d="M410.95,507.31c3.08-1.91,2.97-3.3,5.11-4.09,3.17-1.16,5.97.96,10.55,2.92,5.01,2.14,8.98,2.72,14.64,3.55,11.32,1.66,17.43-1.3,18.04.34.76,2.03-7.84,8.46-17.7,10.55-6.96,1.47-12.8.42-14.98,0-2.48-.47-6.31-2.03-13.96-5.15-6.98-2.85-9.35-4.06-9.19-5.06.18-1.13,3.38-.52,7.49-3.06Z"/>
  <path class="st4" d="M393.59,525.01c3.79-1.48,3.65-4.27,6.47-5.11,2.01-.6,3.38.43,11.23,4.92,8.2,4.68,9.67,5.24,10.88,5.63,5.6,1.82,9.11,1.16,9.23,2.04.18,1.28-6.95,4.2-14.66,4.77-11.17.82-19.21-3.61-23.15-5.79-3.58-1.98-6.87-4.42-6.47-5.45.35-.89,3.09.3,6.47-1.02Z"/>
  <path class="st4" d="M371.12,534.2c4.01-.88,5.31-3.09,7.87-2.38,1.11.31,1.48.9,3.71,3.39,3.55,3.97,5.33,5.96,7.29,7.37,4.2,3.03,7.65,2.65,7.62,3.53-.06,1.35-8.34,3.33-16.52,1.36-5.43-1.3-9.03-3.91-11.62-5.79-3-2.17-7.59-6.13-6.85-7.49.58-1.08,3.66,1.06,8.51,0Z"/>
  <path class="st0" d="M325.16,517.52c-.23-1.5,6.95-3.27,16.34-7.15,5.75-2.37,13.33-5.5,21.03-10.89,4.48-3.13,13.44-9.54,20.16-20.7,5.03-8.34,3.53-10.58,8.51-16.07,3.96-4.37,8.66-6.66,18.04-11.23,10.34-5.04,12.62-4.63,19.4-9.19,6.38-4.3,9.01-7.81,9.89-7.15,1.34,1-2.56,10.84-9.89,18.72-10.2,10.99-23.36,14.24-22.93,15.32.3.76,6.96-.53,16.46-2.38,4.02-.78,5.91-1.21,6.47-.34,1.29,2-5.84,8.72-7.82,10.58-3.24,3.05-6.48,6.1-11.58,8.49-8.13,3.8-14.61,2.93-14.63,4.09-.02,1.21,7.13,3.43,14.63,3.06,3.6-.18,5.68-.87,6.13,0,.84,1.59-4.96,6.27-8.17,8.51-3.28,2.29-6.81,4.76-11.91,5.79-7.25,1.46-13.04-.91-13.32,0-.39,1.26,11.25,4.1,11.27,8.46.02,2.71-4.44,5.1-7.49,5.91-5.1,1.35-10.68-.58-13.62-1.59-3.04-1.05-4.96-2.17-5.45-1.55-.54.68.97,3.1,2.77,4.73,2.36,2.13,4.35,2.09,4.46,3.1.16,1.41-3.51,3.24-6.89,4.09-7.32,1.83-13.78-.87-15.32-1.56-5.6-2.5-4.89-4.49-10.21-7.21-8.46-4.33-16.1-2.27-16.34-3.82Z"/>
  <path class="st2" d="M142.95,458.57"/>
  <path class="st4" d="M313.96,266.2c-.51-.59-2.53-2.87-5.81-5.11-2.84-1.94-5.2-2.88-8.63-4.22-4.53-1.77-8.17-2.7-9.4-3-6.67-1.64-13.23-3.27-20.94-2.3-8.01,1.01-13.65,4.33-17.11,6.38-4.46,2.65-15.6,10.21-20.94,23.23-1.54,3.76-1.97,6.45-4.85,12.26-2.51,5.05-4.19,8.37-7.66,11.49-3.46,3.11-6.88,4.41-12.26,6.38-7.44,2.74-9.76,2.37-14.04,3.83-13.57,4.62-21.07,18.74-20.17,19.66.53.54,3.8-3.7,11.23-6.38,2.31-.83,4.84-1.45,14.81-2.04,14.96-.89,15.42.13,20.17-1.28,6.95-2.06,11.71-5.96,14.04-7.91,6.28-5.25,5.38-7.46,11.74-13.28,2.54-2.32,7.97-7.18,15.83-9.7,7.27-2.33,9.11-.25,19.15-1.42,13.94-1.63,22.35-7.05,22.72-6.24.35.77-7.09,6.09-17.11,8.94-6.73,1.91-7.21.6-14.04,2.3-3.66.91-13.99,3.48-22.47,11.49-4.93,4.66-4.48,6.68-10.72,12-1.71,1.46-5.5,4.65-10.72,7.15-6.08,2.91-9.42,2.64-20.17,4.34-12.24,1.94-18.36,2.91-24.26,5.87-3.22,1.62-9.84,5.04-15.06,12.51-2.74,3.91-9.69,13.01-6.64,19.91,1.26,2.85,2.73,1.97,11.49,9.19,5.12,4.23,7.54,6.93,9.19,6.13,1.48-.72.58-3.37,2.3-7.4,1.11-2.59,2.6-4.12,4.85-6.38,2.33-2.35,7.37-7.4,15.57-10.47,6.15-2.3,6.28-.56,14.81-2.81,4.63-1.22,10.58-2.85,16.85-7.15,6.66-4.57,10.49-9.97,12.25-12.51,3.99-5.73,3.17-7.02,6.89-12,5.67-7.59,12.53-11.26,12.77-10.98.23.27-5.67,3.88-9.7,11.49-2.46,4.64-1.77,6.13-3.57,10.98-4.32,11.63-13.87,18.19-16.6,19.91-3.1,1.97-7.43,3.36-16.09,6.13-14.59,4.67-16.99,3.91-21.45,6.89-8.97,5.99-14.43,16.4-12,20.17.74,1.14,1.74.97,4.6,3.37,2.48,2.09,3.91,4.05,4.85,5.31,4.42,5.89,5.48,5.77,13.79,16.09,2.27,2.82,4.32,5.54,8.43,10.98,7.64,10.13,13.77,18.57,14.04,18.38.24-.16-5.12-6-8.17-15.57-2.09-6.56-2.23-12.14-2.3-16.09-.12-6.87-.2-11.66,2.04-17.11,2.52-6.12,6.6-9.7,13.28-15.57,8.12-7.14,9.59-5.99,13.79-10.98,5.28-6.27,7.15-13.05,8.68-18.64,2.98-10.83.53-12.26,3.57-19.66.71-1.73,4.5-10.54,13.53-16.6,7.34-4.92,8.95-1.86,20.17-7.66,7.86-4.07,11.64-7.93,17.11-13.53,2.46-2.52,2.33-3.76,3.24-4.83.23-.27.33-.3.78-.69,0,0,1.09-.95,2.11-2.13.66-.76,1.02-4.37-2.46-11.93-1.67-3.62-2.81-6.25-5.36-9.19Z"/>
  <path class="st4" d="M321.78,287.32c-.37.23,1.12,2.37,2.3,6.38.86,2.93,3.27,11.18-.13,18-1.99,4-4.08,3.7-6,8.55-1.33,3.36-1.5,6.49-1.53,7.66-.18,6.25,2.37,8.93.77,10.72-1.72,1.93-5.49-.23-7.4,2.04-1.38,1.64-.09,3.61-1.28,4.6-2.31,1.92-9.67-3.47-10.1-2.85-.38.55,5.53,4.6,4.73,6.41-.32.72-1.37.35-2.55,1.29-1.85,1.46-.98,3.69-2.2,5.62-1.61,2.56-6,3.21-9.04,2.55-2.07-.45-2.86-1.37-8.68-6.38-1.11-.96-7.28-6.26-7.66-5.87-.25.25,2.52,2.21,2.55,5.11.02,1.95-1.22,2.95-2.63,5.11-2.5,3.83-3.35,7.94-3.5,10.47-.31,5.19,2.11,9.69,2.68,9.57.48-.1-.56-3.44.13-8.3.82-5.76,3.9-12.26,6.89-12.26,1.6,0,1.64,1.96,4.85,3.83,3.24,1.89,6.54,1.83,7.91,1.79,2.42-.07,7.14-.08,8.68-2.81,1.04-1.84-.25-3.33,1.15-4.98,1.24-1.46,2.81-.96,3.71-2.55.75-1.34.06-2.41.88-3.06.93-.74,2.14.39,3.19-.26,1.34-.83.11-3.14,1.4-4.34.89-.82,1.99-.22,7.15-.38,1.56-.05,2.04-.12,2.43-.51.88-.87.43-2.43,0-5.49,0,0-.27-1.94-.52-5.36-.07-.92-.36-5,.52-8.3,1.05-3.98,3.19-4.49,5.61-8.3.33-.52,5.14-8.33,2.94-16.98-1.66-6.51-6.69-11.08-7.28-10.72Z"/>
  <path class="st4" d="M272.63,376.3c-.34.4.72,1.64,2.23,3.89,0,0,2.85,4.23,4.91,9.36,1.52,3.78,1.25,4.69.96,5.19-.72,1.25-2.46,1.57-4.66,1.72-6.12.42-11.03-.83-12.7-1.28-6.73-1.79-11.55-3.92-12.77-4.47-7.62-3.43-8.22-6.32-11.11-6.06-5.49.49-9.56,10.48-10.91,17.62-3.32,17.49,6.89,32.6,10.09,37.34,3.64,5.39,7.57,8.91,15.32,16.02.84.77,1.67,1.52,2.57,2.3,4.48,3.9,11.63,10.21,21.56,16.72,6.15,4.03,9.23,6.05,13.53,7.61,0,0,1.1.4,10.28,3.22h0c-1.14-.5-2.57-1.28-4.03-2.49-.93-.77-1.67-1.54-2.26-2.24-4.02-4.14-4.39-9.94-4.5-11.72-.19-2.94.32-5.21.45-5.74.58-2.47,1.03-4.36,2.49-6.19.49-.61,1.55-1.79,2.01-3.6.23-.91.13-1.28-.03-1.5-.46-.64-1.57-.37-3.32-.26-2.01.13-1.3-.17-5.62-.19-2.46-.01-2.26.09-4.15.06-2.96-.04-5.13-.31-5.68-.38-3.64-.47-5.47-.71-6.19-1.53-2.05-2.32.22-7.52,1.09-9.51,2.59-5.95,5.17-10.09,5.17-10.09.24-.39.77-1.23.7-2.3-.09-1.41-1.19-2.02-2.11-3.38-1.41-2.1-1.35-4.44-1.34-5.11.06-2.79,1.61-4.76,3.38-7.02,1.92-2.45,3.9-3.88,4.66-4.4,3.08-2.12,5.99-2.89,8.17-3.45,5.88-1.5,8.75-.61,9.45-2.17.45-.99-.27-2.36-3-5.62-3.93-4.67-6.1-6.18-10.66-10.6-3.2-3.1-5.92-6.02-10.6-8.62-2.64-1.47-3.22-1.34-3.38-1.15Z"/>
  <path class="st3" d="M295.32,455.37c4.06-4.87,8.2-2.5,22.63-7.59,3.9-1.38,7.62-3.05,15.06-6.38,1.9-.85,6.14-2.77,11.49-5.49,7.5-3.81,11.27-5.76,12.51-7.79,1.78-2.91.49-3.91,2.17-14.17.62-3.76,1.02-6.24,2.04-9.32,2.2-6.64,6.31-13.16,7.91-12.64,2.05.68-.45,11.88,1.15,12.26.98.23,2.94-3.77,4.09-7.28,2.78-8.52,1.79-16.72,1.79-16.72-.51-4.26-1.66-7.58.26-9.45.14-.14,1.22-1.19,2.43-1.02,4.16.59,5.65,15.13,5.87,22.72.1,3.45.22,8.6-1.02,15.32-.48,2.62-2.43,12.3-9.32,23.87-5.01,8.42-9.97,13.25-19.79,22.85-9.24,9.03-16.34,14.16-19.28,16.21-1.9,1.33-5.01,3.23-11.23,7.02-8.41,5.13-12.52,7.3-17.87,7.66-3.24.22-5.28-.52-6.48-1.12-2.76-1.39-4.18-3.6-5.14-5.13-2.81-4.5-2.92-9.03-2.94-10.85-.02-2.25-.09-8.46,3.67-12.97Z"/>
  <path class="st0" d="M341.18,404.38c-.07-.3-3.52.77-11.55,1.15-7.4.35-9.77-.3-10.66-.57-1.83-.56-5.66-1.78-8.55-5.3-1.09-1.33-1.92-3.44-3.57-7.66-1.83-4.67-1.7-5.72-1.4-6.51.72-1.84,2.67-2.84,2.29-4.21-.21-.73-.86-.79-.89-1.4-.05-1.08,1.93-1.59,3.45-2.94,1.63-1.45,2.08-3.3,2.68-5.74,1.06-4.35-.27-5.11.38-8.55,1.19-6.28,6.8-10.06,8.04-10.85,1.88-1.2,3.39-1.66,5.87-2.43,6.01-1.85,11.39-1.92,14.94-1.66,3.44.25,7.51.55,12.26,2.81,2.02.96,7.22,3.52,11.11,9.45,4.1,6.25,4.34,12.58,4.21,15.57-.26,6.14-2.6,10.45-3.96,12.89-2.26,4.06-4.84,8.69-9.7,10.21-2.11.66-4.54.7-4.6,1.4-.06.78,2.88.9,4.6,3.06,1.22,1.53,1.24,3.37,1.15,5.87-.31,8.58-.46,12.87-2.17,15.06-1.21,1.55-1.11.5-8.04,5.49-3.06,2.2-5.36,4.04-5.87,3.57-.53-.49,1.31-3,.89-3.32-.42-.33-2.58,2.18-5.74,4.77-3.89,3.19-7.37,4.93-9.19,5.82-3.27,1.61-5,2.46-7.66,2.81-3.66.48-6.55-.33-8.55-.89-4.07-1.14-6.86-2.99-8.3-3.96-2.88-1.94-5.26-4.25-6-4.98-2.68-2.65-2.75-3.4-4.21-3.96-3.41-1.31-6.36,1.47-7.4.26-.88-1.03.5-3.85,1.91-5.49.91-1.05,1.88-1.67,2.55-2.04.96-.53,4.33-2.23,11.11-1.66,4.75.4,8.76,1.71,9.36,1.91,4.12,1.37,5.38,2.54,7.23,1.91,2.16-.73,2.6-3.04,4.21-6.26,4.21-8.4,10.71-11.59,9.97-12.61-.53-.73-4.18.47-6.78,2.82-1.39,1.25-1.43,1.89-4.08,5.79-3.51,5.16-4.43,5.5-4.94,5.62-1.99.47-2.79-1.15-6.47-1.87-2.05-.4-2.59-.06-5.96,0-7.18.12-7.73-1.4-11.49-.51-1.2.28-4.52,1.12-6.91,4.09-1.49,1.85-1.96,3.72-2.36,5.28-.6,2.33-1.09,4.25,0,5.62.85,1.07,2.39,1.46,3.57,1.36,1.96-.17,2.41-1.64,3.91-1.7,1.53-.06,2.37,1.42,4.26,3.4,1.95,2.05,4.19,3.53,8.68,6.47,2.92,1.91,4.38,2.87,6.13,3.57,1.47.59,6.08,2.39,11.58,1.47,2.36-.39,3.03-.98,10.04-4.32,4.64-2.21,2.54-1.09,9.21-4.24,10.45-4.93,14.69-5.35,16.76-9.48.63-1.25,1.05-2.8,1.27-3.6,1.01-3.7.93-6.53.97-8.29.11-4.78,1.24-8.54,2.19-11.35,2.54-7.53,5.69-7.73,8.87-16.01,1.73-4.51,2.28-8.29,2.61-10.75.67-4.89,1.19-8.61,0-13.11-1.39-5.28-4.34-8.62-6.64-11.23-5.76-6.54-12.25-9.15-13.69-9.7-1.61-.62-6.85-2.49-13.88-2.21-3.13.12-10.64.52-17.7,5.62-3.24,2.34-6.12,4.42-7.33,8.17-.97,3.04-.07,4.74-1.53,11.06-.75,3.23-1.33,4.27-2.04,5.11-1.68,1.96-3.24,1.76-4.16,3.79-.94,2.05-.68,4.21-.68,4.21.11.9.37,1.64,0,2.55-.31.75-.74.87-1.12,1.53-.56.97-.42,2.08-.17,3.23,1.12,5.15,3.23,9.02,3.23,9.02,2.13,3.9,3.2,5.84,4.94,7.32,1.28,1.08,3.48,2.55,7.66,3.4,11.03,2.25,22.01-2.64,21.87-3.19Z"/>
  <path class="st0" d="M310.8,401.28c-3.47-.64-6.08-.28-7.83.17-2.14.55-2.67,1.14-5.44,1.93-3.14.89-4.26.61-6.71,1.07-5.26.99-8.9,3.95-9.95,4.83-2.03,1.7-5.71,4.8-6.21,9.35-.09.85-.21,1.93.2,3.21.76,2.39,2.46,2.69,2.89,4.91.25,1.29-.1,2.4-.39,3.35-.51,1.63-1.28,2.56-2.06,3.64-1.99,2.78-3.71,5.19-3.79,8.05-.06,2.21.89,3.9,1.33,4.59,0,0,1.38,2.13,4.26,3.4,8.02,3.54,41.67-.89,41.36-2.73-.1-.6-3.83-.58-3.82-1.03,0-.23,1.04-.45,1.09-.32.14.34-5.93,4.13-13,5.96-4.92,1.28-8.48,1.13-15.25.85-9.35-.39-15.89-.66-16.89-3.65-.8-2.37,2.03-6.04,5.83-10.99.05-.07,1.78-2.32,3.4-5.62,1.05-2.14,1.38-3.35,1.19-4.63-.19-1.3-.78-1.72-1.7-3.37-.63-1.13-2.14-3.85-2.04-6.3.12-2.9,2.47-4.92,4.46-6.64,1.23-1.06,4.77-4.1,9.92-4.09,2.71.01,4.84.86,5.88,1.36,2.22,1.06,2.92,2.16,7.92,5.96,2.34,1.77,2.97,2.13,3.82,2.04,1.68-.18,2.05-1.89,4.69-4.6,2.87-2.94,5.54-4.1,5.35-4.43-.15-.27-2.03.38-3.57,1.19-2.08,1.1-2.21,1.79-3.57,2.21-1.17.36-2.37.07-4.77-.51-3.23-.79-4.86-1.21-5.45-2.55-.37-.85-.3-1.93.17-2.72.67-1.13,1.89-1.24,4.26-2.04,1.08-.37,2.62-.95,4.43-1.87Z"/>
  <path class="st5" d="M318.63,380c.51.56,1.31.83,2.89,1.36,1.96.66,2.49.46,2.72.34.61-.31,1.19-1.05,1.02-1.58-.24-.75-1.76-.33-3.66-1.14-2.43-1.04-3.08-3.07-3.66-2.79-.57.27-.51,2.5.68,3.81Z"/>
  <path class="st5" d="M319.32,371.49c.08.31.75.13,2.13.68.34.14.88.43,1.95,1.02,1.47.81,1.68.97,1.9.85.5-.26.5-1.6,0-2.55-.56-1.07-1.75-1.68-2.86-1.72-1.7-.06-3.26,1.21-3.12,1.72Z"/>
  <path class="st5" d="M308.25,389.55c-.36.26.3,2.96,2.21,3.65,1.63.58,3.55-.5,3.5-.95-.04-.34-1.2-.13-2.93-.9-1.87-.83-2.53-1.98-2.79-1.8Z"/>
  <path class="st5" d="M347.91,385.96c.07.21,2.46-1.09,4.18,0,1.55.98,2.01,3.57,1.44,5.5-.84,2.82-3.82,3.99-4.28,4.17-2.01.79-3.53.38-3.72,1.06-.19.64.95,1.83,2.21,2.04,1.81.3,3.45-1.48,4.94-3.1,1.36-1.48,2.29-2.49,2.72-4.17.5-1.96.55-5.67-1.87-6.87-2.49-1.24-5.69,1.12-5.62,1.37Z"/>
  <path class="st4" d="M301.95,313.11c.22.51,2.22-.55,5.11,0,.75.14,1.83.61,4,1.53,2.98,1.27,3.85,1.82,4.37,1.4.53-.44.35-1.64-.03-2.42-.24-.5-.82-1.32-3.4-2.21-2.49-.85-4.77-1.64-7.22-.68-1.65.64-3.01,1.93-2.82,2.38Z"/>
  <path class="st4" d="M300.59,317.53c-.39.24.29,2.27,1.34,3.91.77,1.2,1.7,2.66,3.52,3.23,1.45.46,3.87.46,4.73-1.02.43-.74.54-1.94-.06-2.55-.91-.93-2.51.48-4.77,0-2.97-.62-4.27-3.89-4.77-3.58Z"/>
  <path class="st4" d="M295.21,517.77c.57,0,.75-.91,2.01-2.33.85-.96,1.66-1.53,1.88-1.69.7-.48,1.9-1.32,3.61-1.47,2.08-.18,3.64.75,4.24,1.12,1.6.99,2.38,2.29,2.55,2.59,1.16,2.01.97,4,.86,4.95-.24,2.17-1.17,3.68-1.85,4.76-.85,1.34-2.29,2.66-5.17,5.3-.3.27-1.36,1.22-3.48,3.1-.9.8-1.85,1.53-2.71,2.36-1.77,1.7-2.39,2.65-3.29,2.52-.24-.04-.61-.34-1.33-.96-.85-.72-1.42-1.3-2.02-1.9-.89-.88-1.25-1.19-1.82-1.74-3.03-2.91-5.25-5.05-6.93-7.89-1.31-2.23-2.65-4.49-2.34-7.49.08-.81.41-3.95,3.11-5.83,2.75-1.91,5.87-1.06,6.43-.9.38.11,3.12.96,4.72,3.45.69,1.06.93,2.06,1.52,2.06Z"/>
  <line class="st1" x1="453.49" y1="640.64" x2="495.72" y2="640.64"/>
  <path class="st0" d="M139.21,386.79s-.62-1.96-1.27-4.59c-.59-2.42-.93-4.19-1.11-5.07-1.22-6.15-1.83-6.78-2.69-11.4-.27-1.44-.55-3.97-1.11-9.02-.66-5.93-.98-8.89-1.11-11.24-.25-4.69-.13-8.29,0-12.5.11-3.38.18-5.55.47-8.55.12-1.17.45-4.2,1.18-8.1.25-1.32.46-2.32.56-2.82,1.65-7.73,4.27-15.99,4.27-15.99.55-1.72,2.29-7.18,4.59-12.82,5.67-13.94,12.95-24.72,15.83-28.81,3.47-4.93,11.86-16.2,25.48-27.86,17.13-14.66,33.08-21.82,37.51-23.74,3.89-1.68,19.49-8.22,41.31-10.92,6.07-.75,17.06-1.75,30.87-.79,12,.84,33.2,2.52,56.51,14.56,13.81,7.13,22.98,15.11,28.81,20.26,15.02,13.25,23.64,25.88,25.8,29.12,9.34,14,13.83,26.13,16.3,32.96,5.97,16.47,7.85,29.79,8.39,33.99,2.54,19.85.52,35.01,0,38.62-2.33,16.22-6.91,26.46-6.49,26.59.49.16,6.33-14.28,9.02-30.23.82-4.87,1.14-8.66,1.27-10.29.33-4.33.41-8.91,0-16.62-.51-9.6-.85-15.84-2.37-24.22-.54-2.98-2.33-12.21-6.49-23.58-8.04-21.96-19.55-37.19-24.85-43.69-13.24-16.25-26.55-25.65-30.71-28.49-4.2-2.86-20.77-13.84-45.59-20.42-28.88-7.66-52.45-5-60.78-3.8-18.23,2.62-31.53,8.04-38.46,10.92-19.07,7.92-31.75,17.23-35.14,19.79-11.98,9.02-19.53,17.5-21.53,19.79-8.75,10.01-13.78,18.79-16.94,24.38-11.36,20.09-15.9,37.98-17.73,46.54-1.57,7.37-3.54,16.61-3.48,28.97.13,26.84,9.76,49.04,9.66,49.07Z"/>
  <path class="st4" d="M197.6,448.46c.9-1.22-6.72-8.4-11.57-12.97-8.06-7.59-14.74-12.55-15.32-12.97-34.98-25.74-40.05-28.48-49.7-37.37-10.97-10.1-18.03-19.09-23.49-26.1-10.43-13.4-17.87-22.95-23.15-37.5-4.57-12.6-5.38-23.01-6.81-22.86-1.68.18-1.42,14.69-1.36,18.07.31,17.61.47,26.42,3.74,36.06,4.88,14.36,13.72,22.93,25.53,34.38,10.74,10.41,20.41,16.67,28.94,22.13,13.79,8.82,16.38,8.48,39.15,20.93,21.58,11.8,33.01,19.62,34.04,18.22Z"/>
  <path class="st4" d="M148.24,432.12c-2.03-2.71-4.7-2.69-11.57-5.11-.15-.05-3.62-1.54-10.55-4.5-10.22-4.37-18.84-10.25-24.17-13.88-9.61-6.55-16.56-11.3-23.83-19.4-9.75-10.88-13.03-19.98-14.3-19.4-1.58.71,3.08,14.96,7.83,26.21,3.98,9.43,5.97,14.14,10.21,19.74,6.95,9.18,14.77,13.85,24.01,19.4,8.88,5.33,15.74,7.96,26.04,11.91,2.84,1.09,25.44,9.69,26.88,6.81.79-1.59-6.05-4.22-8.51-12.26-1.47-4.8.09-6.69-2.04-9.53Z"/>
  <path class="st0" d="M160.16,463.87"/>
  <path class="st4" d="M158.86,462.08c-1.22-1.41-2.79-1.18-8.57-2.04-2.48-.37-4.93-.96-7.41-1.36-7.02-1.13-18.63-4.8-25.61-7.49-22.06-8.51-32.43-20.6-34.72-18.38-2.1,2.03,5.12,13.65,12.6,21.69,3.1,3.34,11.6,11.83,25.42,17.46,8.49,3.46,15.12,4.15,28.36,5.54,11.16,1.17,17.38.71,17.7-.8.3-1.38-4.6-2.19-6.47-6.78-1.47-3.61.49-5.76-1.3-7.83Z"/>
  <path class="st4" d="M170.71,492.38c-.93-2.82.94-4.4,0-5.79-.95-1.39-3.52-.83-10.55-.34-2.15.15-4.32.17-6.47.34-11.41.88-26.08-3.6-29.28-4.57-11.39-3.47-16.51-6.87-17.35-5.61-.96,1.43,4.77,7.19,9.53,10.87,2.8,2.17,10.67,8.1,22.6,10.21,5.55.98,3.08-.44,20.97,0,5.09.12,12.53.42,12.94-1.36.2-.9-1.61-1.4-2.38-3.74Z"/>
  <path class="st4" d="M184.33,506.68c-3.08-1.91-2.97-3.3-5.11-4.09-3.17-1.16-5.97.96-10.55,2.92-5.01,2.14-8.98,2.72-14.64,3.55-11.32,1.66-17.43-1.3-18.04.34-.76,2.03,7.84,8.46,17.7,10.55,6.96,1.47,12.8.42,14.98,0,2.48-.47,6.31-2.03,13.96-5.15,6.98-2.85,9.35-4.06,9.19-5.06-.18-1.13-3.38-.52-7.49-3.06Z"/>
  <path class="st4" d="M201.69,524.38c-3.79-1.48-3.65-4.27-6.47-5.11-2.01-.6-3.38.43-11.23,4.92-8.2,4.68-9.67,5.24-10.88,5.63-5.6,1.82-9.11,1.16-9.23,2.04-.18,1.28,6.95,4.2,14.66,4.77,11.17.82,19.21-3.61,23.15-5.79,3.58-1.98,6.87-4.42,6.47-5.45-.35-.89-3.09.3-6.47-1.02Z"/>
  <path class="st4" d="M224.16,533.57c-4.01-.88-5.31-3.09-7.87-2.38-1.11.31-1.48.9-3.71,3.39-3.55,3.97-5.33,5.96-7.29,7.37-4.2,3.03-7.65,2.65-7.62,3.53.06,1.35,8.34,3.33,16.52,1.36,5.43-1.3,9.03-3.91,11.62-5.79,3-2.17,7.59-6.13,6.85-7.49-.58-1.08-3.66,1.06-8.51,0Z"/>
  <path class="st0" d="M270.11,516.89c.23-1.5-6.95-3.27-16.34-7.15-5.75-2.37-13.33-5.5-21.03-10.89-4.48-3.13-13.44-9.54-20.16-20.7-5.03-8.34-3.53-10.58-8.51-16.07-3.96-4.37-8.66-6.66-18.04-11.23-10.34-5.04-12.62-4.63-19.4-9.19-6.38-4.3-9.01-7.81-9.89-7.15-1.34,1,2.56,10.84,9.89,18.72,10.2,10.99,23.36,14.24,22.93,15.32-.3.76-6.96-.53-16.46-2.38-4.02-.78-5.91-1.21-6.47-.34-1.29,2,5.84,8.72,7.82,10.58,3.24,3.05,6.48,6.1,11.58,8.49,8.13,3.8,14.61,2.93,14.63,4.09.02,1.21-7.13,3.43-14.63,3.06-3.6-.18-5.68-.87-6.13,0-.84,1.59,4.96,6.27,8.17,8.51,3.28,2.29,6.81,4.76,11.91,5.79,7.25,1.46,13.04-.91,13.32,0,.39,1.26-11.25,4.1-11.27,8.46-.02,2.71,4.44,5.1,7.49,5.91,5.1,1.35,10.68-.58,13.62-1.59,3.04-1.05,4.96-2.17,5.45-1.55.54.68-.97,3.1-2.77,4.73-2.36,2.13-4.35,2.09-4.46,3.1-.16,1.41,3.51,3.24,6.89,4.09,7.32,1.83,13.78-.87,15.32-1.56,5.6-2.5,4.89-4.49,10.21-7.21,8.46-4.33,16.1-2.27,16.34-3.82Z"/>
  <path class="st0" d="M145.68,631.43v14.94h6.08v-14.94h3.1v14.94h6.08v-14.94h3.13v17.42h-21.49v-17.42h3.1Z"/>
  <path class="st0" d="M172.35,631.43v7.56h.76l6.55-7.56h3.85l-7.59,7.88c2.81.29,4.5,2.16,5.87,5.29.47,1.15,1.08,2.84,1.87,4.25h-3.31c-.47-.76-1.08-2.12-1.62-3.56-1.19-2.81-2.81-4.1-5.76-4.1h-.61v7.67h-3.13v-17.42h3.13Z"/>
  <path class="st0" d="M202.01,640c0,6.44-4.46,9.25-8.67,9.25-4.72,0-8.35-3.46-8.35-8.96,0-5.83,3.82-9.25,8.64-9.25s8.39,3.63,8.39,8.96ZM188.19,640.18c0,3.82,2.2,6.7,5.29,6.7s5.29-2.84,5.29-6.77c0-2.95-1.48-6.7-5.22-6.7s-5.36,3.46-5.36,6.77Z"/>
  <path class="st0" d="M219.22,631.43v17.42h-3.13v-14.94h-5.98v4.54c0,4.9-.47,8.17-2.74,9.65-.86.68-1.84,1.08-3.46,1.08l-.32-2.48c.61-.11,1.3-.36,1.73-.72,1.62-1.19,1.8-3.64,1.8-7.52v-7.02h12.09Z"/>
  <path class="st0" d="M234.05,648.85l-.25-2.2h-.11c-.97,1.37-2.84,2.59-5.33,2.59-3.53,0-5.33-2.48-5.33-5,0-4.21,3.74-6.52,10.47-6.48v-.36c0-1.44-.4-4.03-3.96-4.03-1.62,0-3.31.5-4.54,1.3l-.72-2.09c1.44-.94,3.53-1.55,5.72-1.55,5.33,0,6.62,3.63,6.62,7.13v6.51c0,1.51.07,2.99.29,4.18h-2.88ZM233.59,639.96c-3.46-.07-7.38.54-7.38,3.92,0,2.05,1.37,3.02,2.99,3.02,2.27,0,3.71-1.44,4.21-2.92.11-.32.18-.68.18-1.01v-3.02Z"/>
  <path class="st0" d="M249.57,631.43h3.89l3.17,8.78c.43,1.3,1.19,3.42,1.58,4.79h.07c.4-1.3,1.37-4.07,2.05-5.98l2.81-7.59h3.92l1.22,17.42h-3.02l-.4-8.32c-.11-1.87-.25-4.1-.32-6.23h-.11c-.47,1.58-.94,2.99-1.91,5.65l-3.35,8.78h-2.3l-3.09-8.6c-.54-1.66-1.3-4.18-1.73-5.79h-.14c-.07,2.05-.18,4.36-.29,6.26l-.43,8.24h-2.92l1.3-17.42Z"/>
  <path class="st0" d="M282.04,648.85l-.25-2.2h-.11c-.97,1.37-2.84,2.59-5.33,2.59-3.53,0-5.33-2.48-5.33-5,0-4.21,3.74-6.52,10.47-6.48v-.36c0-1.44-.4-4.03-3.96-4.03-1.62,0-3.31.5-4.54,1.3l-.72-2.09c1.44-.94,3.53-1.55,5.72-1.55,5.33,0,6.62,3.63,6.62,7.13v6.51c0,1.51.07,2.99.29,4.18h-2.88ZM281.57,639.96c-3.46-.07-7.38.54-7.38,3.92,0,2.05,1.37,3.02,2.99,3.02,2.27,0,3.71-1.44,4.21-2.92.11-.32.18-.68.18-1.01v-3.02Z"/>
  <path class="st0" d="M301.27,631.43v2.52h-5.44v14.9h-3.13v-14.9h-5.44v-2.52h14Z"/>
  <path class="st0" d="M305.34,640.72c.07,4.28,2.81,6.05,5.98,6.05,2.27,0,3.63-.4,4.82-.9l.54,2.27c-1.12.5-3.02,1.08-5.8,1.08-5.36,0-8.57-3.53-8.57-8.78s3.1-9.39,8.17-9.39c5.69,0,7.2,5,7.2,8.21,0,.65-.07,1.15-.11,1.48h-12.24ZM314.62,638.45c.04-2.02-.83-5.15-4.39-5.15-3.2,0-4.61,2.95-4.86,5.15h9.25Z"/>
  <path class="st0" d="M321.61,637.12c0-2.23-.07-4.03-.14-5.69h2.84l.14,2.99h.07c1.3-2.12,3.35-3.38,6.19-3.38,4.21,0,7.38,3.56,7.38,8.85,0,6.26-3.82,9.36-7.92,9.36-2.3,0-4.32-1.01-5.36-2.74h-.07v9.47h-3.13v-18.86ZM324.74,641.76c0,.47.07.9.14,1.3.58,2.2,2.48,3.71,4.75,3.71,3.35,0,5.29-2.74,5.29-6.73,0-3.49-1.84-6.48-5.18-6.48-2.16,0-4.18,1.55-4.79,3.92-.11.4-.22.86-.22,1.3v2.99Z"/>
  <path class="st0" d="M345.01,631.43v7.34c0,2.77-.04,4.5-.18,6.98l.11.04c1.04-2.12,1.66-3.35,2.81-5.36l5.43-9h3.71v17.42h-3.02v-7.38c0-2.84.07-4.32.22-7.13h-.11c-1.12,2.23-1.87,3.63-2.88,5.4-1.66,2.7-3.56,6.05-5.44,9.11h-3.64v-17.42h2.99Z"/>
  <path class="st0" d="M365.09,631.43v7.02h8.28v-7.02h3.13v17.42h-3.13v-7.88h-8.28v7.88h-3.13v-17.42h3.13Z"/>
  <path class="st0" d="M394.11,648.21c-.83.43-2.66,1.01-5,1.01-5.26,0-8.67-3.56-8.67-8.89s3.67-9.25,9.36-9.25c1.87,0,3.53.47,4.39.9l-.72,2.45c-.76-.43-1.94-.83-3.67-.83-4,0-6.16,2.95-6.16,6.59,0,4.03,2.59,6.51,6.05,6.51,1.8,0,2.99-.47,3.89-.86l.54,2.38Z"/>
  <path class="st0" d="M410.17,631.43v2.52h-5.44v14.9h-3.13v-14.9h-5.44v-2.52h14Z"/>
  <path class="st0" d="M412.87,631.65c1.22-.22,3.49-.4,5.54-.4,2.92,0,7.74.47,7.74,4.36,0,2.16-1.66,3.49-3.64,3.92v.07c2.56.36,4.43,1.8,4.43,4.32,0,4.57-5.76,5.15-9.18,5.15-1.94,0-3.96-.14-4.9-.22v-17.21ZM415.85,646.77c.9.11,1.55.14,2.56.14,2.12,0,5.29-.5,5.29-3.02s-2.52-3.06-5.54-3.06h-2.3v5.94ZM415.89,638.74h2.38c2.34,0,4.75-.68,4.75-2.74,0-1.73-1.51-2.56-4.68-2.56-1.04,0-1.69.07-2.45.14v5.15Z"/>
  <path class="st0" d="M440.59,648.85l-.25-2.2h-.11c-.97,1.37-2.84,2.59-5.33,2.59-3.53,0-5.33-2.48-5.33-5,0-4.21,3.74-6.52,10.47-6.48v-.36c0-1.44-.4-4.03-3.96-4.03-1.62,0-3.31.5-4.54,1.3l-.72-2.09c1.44-.94,3.53-1.55,5.72-1.55,5.33,0,6.62,3.63,6.62,7.13v6.51c0,1.51.07,2.99.29,4.18h-2.88ZM440.12,639.96c-3.46-.07-7.38.54-7.38,3.92,0,2.05,1.37,3.02,2.99,3.02,2.27,0,3.71-1.44,4.21-2.92.11-.32.18-.68.18-1.01v-3.02Z"/>
  <line class="st1" x1="90.07" y1="640.14" x2="132.29" y2="641.14"/>
</svg>